<svg version="1.1" id="Layer_1" xmlns="http://www.w3.org/2000/svg" xmlns:xlink="http://www.w3.org/1999/xlink" x="0px" y="0px"
	 width="100%" viewBox="0 0 310 310" enable-background="new 0 0 310 310" xml:space="preserve">
<path fill="#FB9B11" opacity="1.000000" stroke="none" 
	d="
M171.000000,311.000000 
	C114.000031,311.000000 57.500053,311.000000 1.000061,311.000000 
	C1.000040,207.666748 1.000040,104.333488 1.000020,1.000171 
	C104.333214,1.000114 207.666428,1.000114 310.999725,1.000057 
	C310.999817,104.333160 310.999817,207.666321 310.999908,310.999756 
	C264.500000,311.000000 218.000000,311.000000 171.000000,311.000000 
M68.654182,185.019958 
	C69.080879,185.059311 69.507568,185.098663 70.292816,185.752274 
	C70.693115,186.037643 71.066597,186.520859 71.497650,186.579269 
	C80.987930,187.865280 92.643776,181.824310 97.479202,173.409363 
	C98.369896,171.859329 100.125404,170.806229 101.481743,169.523743 
	C102.631531,170.851410 104.276840,171.996109 104.846184,173.538086 
	C107.447327,180.583054 114.331490,185.904846 121.732452,185.777466 
	C124.194336,185.735092 126.639992,184.750061 129.705078,184.033844 
	C130.126083,184.024597 130.547073,184.015350 131.534225,184.426407 
	C132.692108,184.599625 133.850006,184.772842 135.015762,185.696136 
	C135.940796,186.917679 136.865845,188.139236 137.790878,189.360779 
	C138.677551,187.970535 139.718842,186.648270 140.374710,185.156540 
	C140.636719,184.560669 140.048386,183.590912 140.060211,182.216568 
	C140.996933,181.445633 141.933640,180.674698 143.702835,179.956558 
	C144.808792,179.970886 145.914734,179.985214 147.059967,180.781403 
	C148.298157,185.890717 149.921799,186.641418 157.380630,185.933975 
	C161.509140,185.542374 163.138611,183.412262 163.038162,179.322769 
	C162.900116,173.703613 163.016541,168.073425 163.213120,162.454575 
	C163.255493,161.243225 163.770752,159.507782 164.649445,158.978226 
	C166.510117,157.856903 169.811371,156.145233 170.639313,156.859100 
	C172.969788,158.868378 175.216843,161.787476 175.873840,164.712433 
	C176.641129,168.128464 175.249847,171.975601 175.619019,175.550629 
	C175.956543,178.819107 176.584900,183.950363 178.523682,184.743332 
	C181.936493,186.139160 186.461227,185.013763 190.490036,184.627747 
	C192.705338,184.415512 194.858826,183.557999 197.477051,183.195648 
	C197.477051,183.195648 197.842926,183.509796 198.236725,184.092102 
	C202.130905,185.187973 206.028214,186.537933 210.596573,183.922028 
	C211.510666,182.704117 212.409698,181.474518 213.343460,180.271881 
	C214.150833,179.232040 214.849030,177.544586 215.854279,177.324265 
	C219.188721,176.593475 222.639984,176.395767 226.247375,176.666534 
	C228.697021,181.972672 235.931625,186.347137 241.393127,185.682037 
	C242.006348,185.607361 242.516464,184.685989 243.918213,184.074860 
	C245.613434,184.093994 247.308670,184.113129 249.627533,184.546585 
	C251.397110,184.643356 253.166702,184.740143 255.341660,185.431824 
	C258.417664,187.046967 265.971710,183.477753 266.149506,180.248337 
	C266.172455,179.831619 265.285858,179.364838 264.806061,178.121002 
	C264.208130,174.442215 263.545105,171.261810 266.742371,167.707214 
	C268.676483,165.556946 268.969543,160.565826 268.006226,157.471802 
	C266.259064,151.860077 264.001068,146.009491 257.813812,142.382874 
	C256.101318,141.649323 254.388840,140.915756 251.935883,140.230896 
	C250.947739,140.194214 249.959610,140.157547 249.049347,139.434097 
	C249.692108,138.199539 250.334869,136.964981 251.110016,135.476166 
	C246.941711,134.573029 244.775116,136.252258 243.262238,140.306335 
	C240.946487,140.588776 238.630737,140.871201 235.657181,141.242813 
	C235.104721,141.850708 234.552246,142.458603 233.601212,143.119995 
	C233.601212,143.119995 233.199234,143.108749 232.387054,143.101776 
	C229.564331,143.087097 226.741592,143.072433 223.935684,143.006256 
	C223.935684,143.006256 223.940506,143.055649 223.920807,142.318634 
	C223.387955,139.526855 222.285553,137.627533 218.894516,138.733566 
	C217.880264,139.064392 216.714264,139.096817 215.633240,139.026871 
	C211.231888,138.742172 206.830872,138.086151 202.442078,138.175217 
	C200.942184,138.205658 199.478500,140.020035 197.433548,141.387131 
	C196.532013,143.341934 194.874832,145.289307 194.855484,147.252808 
	C194.754395,157.514801 195.069046,167.780884 194.461212,177.817978 
	C193.669876,173.723297 192.653900,169.656281 192.145569,165.526764 
	C191.545059,160.648499 191.939957,155.595413 190.906647,150.834412 
	C189.157074,142.773117 185.401367,140.235596 176.517471,139.685120 
	C174.460495,139.202332 172.417587,138.412720 170.342819,138.317444 
	C167.957336,138.207932 165.543625,138.712830 163.083450,138.051682 
	C163.074295,135.041519 163.065125,132.031342 163.814117,129.006653 
	C165.099915,128.721710 166.385696,128.436783 168.467606,127.975441 
	C166.036423,125.441551 164.721344,122.754967 161.314743,126.087532 
	C160.879425,126.040848 160.444122,125.994171 159.691467,125.309700 
	C157.438721,125.262115 155.185989,125.214531 152.212677,125.184868 
	C150.509338,126.464333 148.806015,127.743805 146.480774,129.239182 
	C146.671646,130.490448 146.862518,131.741699 147.063400,133.794388 
	C147.042664,134.862808 147.021942,135.931213 146.362717,137.289307 
	C144.447113,139.445450 144.240448,141.400421 147.055893,143.750931 
	C147.043396,144.499847 147.030899,145.248749 146.169525,145.996658 
	C144.751205,146.018127 143.332901,146.039581 141.337372,145.697266 
	C125.907829,136.520996 112.760559,137.659805 103.332176,154.880341 
	C102.649109,153.858124 102.238708,153.500320 102.151154,153.075912 
	C98.987579,137.741119 91.950882,130.739456 76.674141,127.770012 
	C65.336151,125.566170 51.778755,131.121552 45.669876,140.812607 
	C43.670147,143.984970 42.300816,147.581543 40.859871,151.073517 
	C38.158558,157.619858 42.963448,172.156006 49.183659,176.671143 
	C53.566372,183.244980 61.481903,186.752716 68.654182,185.019958 
M265.549835,142.592896 
	C266.097168,142.131836 266.644531,141.670776 267.191864,141.209732 
	C266.702881,140.903702 266.213867,140.597672 265.724915,140.291641 
	C265.490631,140.997177 265.256378,141.702713 265.549835,142.592896 
z"/>
<path fill="#FCF6E4" opacity="1.000000" stroke="none" 
	d="
M249.003891,184.132263 
	C247.308670,184.113129 245.613434,184.093994 243.178223,183.912262 
	C233.736023,181.905212 227.527176,177.236832 225.589890,168.194122 
	C223.904343,160.326462 225.682693,153.100922 231.807907,147.776199 
	C238.401276,142.044495 246.343719,141.487915 254.335709,144.406143 
	C262.060883,147.227005 264.623779,153.733780 265.268646,161.346085 
	C265.583923,165.067688 264.319580,166.930634 260.266846,166.810730 
	C254.290237,166.633881 248.302719,166.768768 242.321106,166.856384 
	C240.776886,166.879013 239.237350,167.220627 237.433090,167.448944 
	C238.483536,172.235764 241.230621,174.573730 245.154495,174.680283 
	C248.179352,174.762405 251.544632,174.224289 254.206192,172.873566 
	C257.864594,171.016953 259.930420,172.879135 260.991302,175.389740 
	C261.464813,176.510361 259.646210,179.439560 258.139709,180.374237 
	C255.379639,182.086609 252.079086,182.927811 249.003891,184.132263 
M247.096085,151.130981 
	C244.256912,152.191559 241.275986,152.996185 238.653839,154.448608 
	C237.708832,154.972046 236.989975,157.260986 237.350006,158.355377 
	C237.639893,159.236542 239.675919,159.888351 240.996887,160.013855 
	C243.804993,160.280655 246.671371,160.346939 249.475555,160.085052 
	C251.122284,159.931274 252.695374,158.988998 254.301590,158.401382 
	C253.368286,156.571060 252.664337,154.559204 251.414154,152.979706 
	C250.684418,152.057739 249.081284,151.827087 247.096085,151.130981 
z"/>
<path fill="#F0AD50" opacity="1.000000" stroke="none" 
	d="
M249.315704,184.339417 
	C252.079086,182.927811 255.379639,182.086609 258.139709,180.374237 
	C259.646210,179.439560 261.464813,176.510361 260.991302,175.389740 
	C259.930420,172.879135 257.864594,171.016953 254.206192,172.873566 
	C251.544632,174.224289 248.179352,174.762405 245.154495,174.680283 
	C241.230621,174.573730 238.483536,172.235764 237.433090,167.448944 
	C239.237350,167.220627 240.776886,166.879013 242.321106,166.856384 
	C248.302719,166.768768 254.290237,166.633881 260.266846,166.810730 
	C264.319580,166.930634 265.583923,165.067688 265.268646,161.346085 
	C264.623779,153.733780 262.060883,147.227005 254.335709,144.406143 
	C246.343719,141.487915 238.401276,142.044495 231.807907,147.776199 
	C225.682693,153.100922 223.904343,160.326462 225.589890,168.194122 
	C227.527176,177.236832 233.736023,181.905212 242.756317,183.953461 
	C242.516464,184.685989 242.006348,185.607361 241.393127,185.682037 
	C235.931625,186.347137 228.697021,181.972672 226.008270,176.052536 
	C224.954865,174.253387 224.140564,173.068222 223.261292,171.527557 
	C222.862579,169.774918 222.528854,168.377777 222.238266,166.595245 
	C222.423447,165.394058 222.765411,164.554245 222.670700,163.766968 
	C222.366257,161.236572 222.675537,157.172791 221.346222,156.509338 
	C217.885529,154.782166 214.287796,156.016846 212.059738,159.781906 
	C211.332245,161.011246 210.187607,161.993729 209.111694,162.718323 
	C209.525604,156.477615 213.553741,154.431259 218.619690,153.252457 
	C221.417694,152.601379 223.289108,147.849808 221.391830,145.174149 
	C220.596191,144.052063 217.481155,143.958679 215.634094,144.365936 
	C213.665176,144.800079 211.948624,146.378754 210.214005,147.403336 
	C209.730392,147.089096 209.299194,146.970520 209.216644,146.731522 
	C207.412796,141.508530 203.020493,142.834564 199.610901,143.632538 
	C198.405579,143.914658 197.381119,147.520844 197.307007,149.645462 
	C196.977524,159.090073 197.022583,168.547745 196.648743,178.004684 
	C195.989868,178.020966 195.614487,178.033264 195.239105,178.045547 
	C195.069046,167.780884 194.754395,157.514801 194.855484,147.252808 
	C194.874832,145.289307 196.532013,143.341934 198.140106,141.214325 
	C205.724548,139.314133 212.498016,144.775360 219.525711,141.308319 
	C220.478149,140.838440 222.443939,142.422577 223.940506,143.055649 
	C223.940506,143.055649 223.935684,143.006256 223.927292,143.454712 
	C223.918900,146.232742 223.918900,148.562347 223.918900,151.975159 
	C227.692444,148.369919 230.445831,145.739334 233.199234,143.108749 
	C233.199234,143.108749 233.601212,143.119995 234.102463,143.007263 
	C235.174133,142.314240 235.744553,141.733932 236.314987,141.153641 
	C238.630737,140.871201 240.946487,140.588776 244.050476,140.218140 
	C246.216309,140.126923 247.593887,140.123901 248.971466,140.120880 
	C249.959610,140.157547 250.947739,140.194214 252.485352,140.501038 
	C254.686539,141.549911 256.338257,142.328659 257.989960,143.107407 
	C264.001068,146.009491 266.259064,151.860077 268.006226,157.471802 
	C268.969543,160.565826 268.676483,165.556946 266.742371,167.707214 
	C263.545105,171.261810 264.208130,174.442215 264.546082,178.711182 
	C261.169464,181.146561 258.052856,182.991730 254.936279,184.836914 
	C253.166702,184.740143 251.397110,184.643356 249.315704,184.339417 
M252.421982,169.244827 
	C249.289444,169.046555 245.907059,167.852325 243.508408,171.297592 
	C248.033310,174.062027 251.154388,173.463272 252.421982,169.244827 
z"/>
<path fill="#F2AA4D" opacity="1.000000" stroke="none" 
	d="
M194.850159,177.931763 
	C195.614487,178.033264 195.989868,178.020966 196.745819,178.412537 
	C197.097672,180.208084 197.068924,181.599762 197.040176,182.991425 
	C194.858826,183.557999 192.705338,184.415512 190.490036,184.627747 
	C186.461227,185.013763 181.936493,186.139160 178.523682,184.743332 
	C176.584900,183.950363 175.956543,178.819107 175.619019,175.550629 
	C175.249847,171.975601 176.641129,168.128464 175.873840,164.712433 
	C175.216843,161.787476 172.969788,158.868378 170.639313,156.859100 
	C169.811371,156.145233 166.510117,157.856903 164.649445,158.978226 
	C163.770752,159.507782 163.255493,161.243225 163.213120,162.454575 
	C163.016541,168.073425 162.900116,173.703613 163.038162,179.322769 
	C163.138611,183.412262 161.509140,185.542374 157.380630,185.933975 
	C149.921799,186.641418 148.298157,185.890717 147.057755,179.947495 
	C147.052734,176.748688 147.049911,174.383789 147.056519,171.681824 
	C147.060837,170.895706 147.055740,170.446655 147.060410,169.634308 
	C146.760880,168.131393 146.451584,166.991776 146.217041,165.478882 
	C146.541458,161.068588 146.791122,157.031601 147.054138,152.557526 
	C147.051117,150.079529 147.034760,148.038589 147.018402,145.997665 
	C147.030899,145.248749 147.043396,144.499847 147.062164,142.947723 
	C147.046036,140.429550 147.023621,138.714600 147.001221,136.999634 
	C147.021942,135.931213 147.042664,134.862808 147.074005,132.996765 
	C147.090622,131.140533 147.096649,130.081894 147.102676,129.023270 
	C148.806015,127.743805 150.509338,126.464333 152.917908,125.358429 
	C155.751678,125.670494 157.880249,125.808990 160.008804,125.947487 
	C160.444122,125.994171 160.879425,126.040848 161.769470,126.391357 
	C162.501450,127.470520 162.778702,128.245850 163.055969,129.021179 
	C163.065125,132.031342 163.074295,135.041519 163.093063,138.865997 
	C163.212021,142.433380 164.647842,142.850021 167.079849,142.232742 
	C170.374741,141.396439 173.744644,140.855682 177.082367,140.188141 
	C185.401367,140.235596 189.157074,142.773117 190.906647,150.834412 
	C191.939957,155.595413 191.545059,160.648499 192.145569,165.526764 
	C192.653900,169.656281 193.669876,173.723297 194.850159,177.931763 
M189.755066,166.524796 
	C189.765305,163.363129 190.002457,160.182907 189.745712,157.043076 
	C188.740829,144.753662 176.275543,138.696136 165.802536,145.318115 
	C164.512360,146.133881 163.205673,146.923462 161.063858,148.245300 
	C161.063858,142.488190 160.845917,137.842728 161.123611,133.227097 
	C161.415924,128.368362 158.648621,127.984222 154.865540,127.849403 
	C150.911163,127.708466 149.595535,129.196777 149.633530,133.061218 
	C149.782455,148.205124 149.829071,163.352463 149.656021,178.495590 
	C149.607285,182.761063 151.633270,183.434372 155.187317,183.385620 
	C158.763916,183.336517 161.379150,182.990540 161.138763,178.333405 
	C160.864609,173.022736 160.921951,167.677383 161.166992,162.362396 
	C161.419800,156.879028 165.398697,153.083969 170.385468,153.094757 
	C175.319946,153.105438 178.132767,156.445099 178.239426,162.574646 
	C178.334976,168.065643 178.366455,173.558563 178.351273,179.050430 
	C178.339951,183.139175 180.972916,183.424942 184.087326,183.326599 
	C187.085159,183.231964 189.923065,183.151184 189.844391,178.995453 
	C189.771957,175.168488 189.781540,171.339981 189.755066,166.524796 
z"/>
<path fill="#EFA845" opacity="1.000000" stroke="none" 
	d="
M48.984268,176.016891 
	C42.963448,172.156006 38.158558,157.619858 40.859871,151.073517 
	C42.300816,147.581543 43.670147,143.984970 45.669876,140.812607 
	C51.778755,131.121552 65.336151,125.566170 76.674141,127.770012 
	C91.950882,130.739456 98.987579,137.741119 102.151154,153.075912 
	C102.238708,153.500320 102.649109,153.858124 103.332176,154.880341 
	C112.760559,137.659805 125.907829,136.520996 141.819977,146.158142 
	C143.199661,148.413849 144.096710,150.208664 144.674683,152.024231 
	C143.929810,152.046051 143.504013,152.047134 142.966385,151.712646 
	C142.398483,150.504837 142.087494,149.508179 141.463196,148.780182 
	C136.732193,143.263290 126.563606,140.900314 118.781509,143.733734 
	C110.873100,146.613129 106.224716,152.273865 105.473106,160.794403 
	C104.640068,170.237961 108.176064,178.075882 115.626282,181.253433 
	C119.778282,183.024277 124.582680,183.265442 129.093063,184.195953 
	C126.639992,184.750061 124.194336,185.735092 121.732452,185.777466 
	C114.331490,185.904846 107.447327,180.583054 104.846184,173.538086 
	C104.276840,171.996109 102.631531,170.851410 101.481743,169.523743 
	C100.125404,170.806229 98.369896,171.859329 97.479202,173.409363 
	C92.643776,181.824310 80.987930,187.865280 71.497650,186.579269 
	C71.066597,186.520859 70.693115,186.037643 70.488632,185.353714 
	C72.117783,184.604538 73.551117,184.253922 75.357132,183.864380 
	C76.718445,183.686478 77.707077,183.547531 78.988167,183.492264 
	C79.952812,183.216553 80.625000,182.857132 81.616959,182.364410 
	C83.612015,181.472504 85.287308,180.713928 87.267136,179.930267 
	C88.107567,179.343124 88.643463,178.781067 89.439087,178.007660 
	C92.327980,174.306381 94.957138,170.816467 97.845856,167.105225 
	C98.526100,164.815887 98.946793,162.747879 99.423088,160.272873 
	C99.456184,157.681747 99.433678,155.497604 99.515190,153.010345 
	C99.392281,152.139664 99.165337,151.572113 98.856171,150.681580 
	C98.432106,149.300674 98.090263,148.242783 97.787987,146.842514 
	C96.989655,145.256531 96.151749,144.012924 95.142273,142.484543 
	C93.382744,140.377914 91.794762,138.556061 90.096260,136.452026 
	C89.307251,135.798508 88.628777,135.427155 87.684067,134.906921 
	C86.697937,134.379410 85.978035,134.000778 85.115814,133.351776 
	C84.245514,132.819214 83.517525,132.557007 82.477478,132.183975 
	C81.110428,131.754730 80.055428,131.436325 78.715454,130.873505 
	C77.202972,130.551895 75.975471,130.474655 74.332703,130.356491 
	C71.703873,130.363876 69.490303,130.412186 66.932449,130.357346 
	C65.726540,130.554626 64.864929,130.855072 63.718010,131.208008 
	C63.055592,131.346451 62.678478,131.432404 61.945538,131.446243 
	C59.648235,132.473557 57.706757,133.572968 55.467667,134.842041 
	C52.678452,137.599304 50.186844,140.186905 47.397659,142.914612 
	C46.471565,144.425308 45.843048,145.795914 45.114502,147.483734 
	C44.713951,148.866730 44.413429,149.932510 43.867107,151.281891 
	C43.534237,152.785995 43.447166,154.006485 43.343056,155.618591 
	C43.394123,157.572113 43.462227,159.134018 43.438908,161.005478 
	C43.601372,161.877365 43.855259,162.439667 44.188866,163.339981 
	C44.913471,165.399170 45.558361,167.120361 46.187035,169.143280 
	C46.628273,170.061005 47.085724,170.677002 47.681519,171.582520 
	C48.500423,172.946426 49.180988,174.020828 49.642212,175.325623 
	C49.276672,175.709641 49.130470,175.863266 48.984268,176.016891 
z"/>
<path fill="#FDF5E4" opacity="1.000000" stroke="none" 
	d="
M197.258606,183.093536 
	C197.068924,181.599762 197.097672,180.208084 197.029327,178.408569 
	C197.022583,168.547745 196.977524,159.090073 197.307007,149.645462 
	C197.381119,147.520844 198.405579,143.914658 199.610901,143.632538 
	C203.020493,142.834564 207.412796,141.508530 209.216644,146.731522 
	C209.299194,146.970520 209.730392,147.089096 210.214005,147.403336 
	C211.948624,146.378754 213.665176,144.800079 215.634094,144.365936 
	C217.481155,143.958679 220.596191,144.052063 221.391830,145.174149 
	C223.289108,147.849808 221.417694,152.601379 218.619690,153.252457 
	C213.553741,154.431259 209.525604,156.477615 209.034149,163.125504 
	C209.188950,165.269165 209.299225,166.634857 209.326599,168.228958 
	C209.243698,168.457367 209.426254,168.907761 209.346237,169.177429 
	C209.319244,169.626968 209.372253,169.806839 209.273865,170.417511 
	C209.129639,173.877335 209.136795,176.906342 208.950378,180.287781 
	C207.388855,181.494614 206.115417,182.771133 204.630569,183.103653 
	C202.447205,183.592590 200.112915,183.407669 197.842926,183.509796 
	C197.842926,183.509796 197.477051,183.195648 197.258606,183.093536 
z"/>
<path fill="#FDEFD1" opacity="1.000000" stroke="none" 
	d="
M129.399078,184.114899 
	C124.582680,183.265442 119.778282,183.024277 115.626282,181.253433 
	C108.176064,178.075882 104.640068,170.237961 105.473106,160.794403 
	C106.224716,152.273865 110.873100,146.613129 118.781509,143.733734 
	C126.563606,140.900314 136.732193,143.263290 141.463196,148.780182 
	C142.087494,149.508179 142.398483,150.504837 142.770325,151.857941 
	C142.437027,152.551620 142.218948,152.792526 141.678772,153.073334 
	C138.526123,154.661331 136.209442,156.740219 132.393967,154.297455 
	C127.611397,151.235519 122.298622,152.464386 119.383926,156.206696 
	C116.034531,160.507095 116.182747,166.773193 119.732323,170.937408 
	C122.995461,174.765579 127.484421,175.279999 132.807953,172.422745 
	C133.538071,172.030869 134.432602,171.068207 134.921768,171.250977 
	C137.533951,172.227036 140.041504,173.483093 142.585236,174.642319 
	C141.415573,176.126068 140.245926,177.609818 139.116302,178.750244 
	C139.809402,175.651840 139.891785,173.117767 135.924896,173.813446 
	C130.345551,174.791870 124.812424,176.033890 119.523811,177.109451 
	C118.020439,174.048584 116.773232,171.911133 115.910172,169.628433 
	C115.183189,167.705643 114.262306,165.524628 114.529427,163.611832 
	C116.147453,152.025421 124.042572,147.864792 135.393280,152.171555 
	C136.530685,152.603119 138.118179,151.848419 139.867523,151.589355 
	C135.379440,144.698029 124.041328,142.394119 117.564194,146.605392 
	C111.140137,150.782150 107.633636,156.014954 107.586395,164.571167 
	C107.529739,174.833603 119.582047,185.803452 131.959946,181.122772 
	C134.265472,180.250946 136.711517,179.750732 138.993805,179.410950 
	C136.252640,181.163956 133.610352,182.585022 130.968079,184.006104 
	C130.547073,184.015350 130.126083,184.024597 129.399078,184.114899 
z"/>
<path fill="#EFA845" opacity="1.000000" stroke="none" 
	d="
M131.251160,184.216248 
	C133.610352,182.585022 136.252640,181.163956 138.951752,179.372559 
	C139.008575,179.002228 139.076263,179.093567 139.076263,179.093567 
	C140.245926,177.609818 141.415573,176.126068 142.585236,174.642319 
	C140.041504,173.483093 137.533951,172.227036 134.921768,171.250977 
	C134.432602,171.068207 133.538071,172.030869 132.807953,172.422745 
	C127.484421,175.279999 122.995461,174.765579 119.732323,170.937408 
	C116.182747,166.773193 116.034531,160.507095 119.383926,156.206696 
	C122.298622,152.464386 127.611397,151.235519 132.393967,154.297455 
	C136.209442,156.740219 138.526123,154.661331 141.609192,153.434631 
	C140.912048,157.364899 138.361557,158.410324 134.991211,157.911957 
	C133.373215,157.672699 131.796722,156.842697 130.199783,156.838043 
	C127.213089,156.829315 122.849983,156.130585 121.577271,157.726624 
	C119.892403,159.839493 119.368530,164.590378 120.670685,166.892273 
	C121.977707,169.202774 127.737686,171.840469 128.786026,170.978378 
	C134.574539,166.218262 139.045425,169.474686 143.944000,172.430054 
	C143.643250,175.156891 143.256790,177.530319 142.870346,179.903748 
	C141.933640,180.674698 140.996933,181.445633 139.640900,182.607117 
	C137.817017,183.647141 136.412460,184.296585 135.007889,184.946045 
	C133.850006,184.772842 132.692108,184.599625 131.251160,184.216248 
z"/>
<path fill="#F99B18" opacity="1.000000" stroke="none" 
	d="
M209.143951,179.935364 
	C209.136795,176.906342 209.129639,173.877335 209.617920,170.455063 
	C214.298431,172.259430 218.528107,174.133423 223.326263,171.883057 
	C224.140564,173.068222 224.954865,174.253387 225.907806,175.716064 
	C222.639984,176.395767 219.188721,176.593475 215.854279,177.324265 
	C214.849030,177.544586 214.150833,179.232040 213.343460,180.271881 
	C212.409698,181.474518 211.510666,182.704117 210.374527,183.647736 
	C209.816299,182.227417 209.480118,181.081390 209.143951,179.935364 
z"/>
<path fill="#F89B19" opacity="1.000000" stroke="none" 
	d="
M223.930664,142.687134 
	C222.443939,142.422577 220.478149,140.838440 219.525711,141.308319 
	C212.498016,144.775360 205.724548,139.314133 198.422455,141.030426 
	C199.478500,140.020035 200.942184,138.205658 202.442078,138.175217 
	C206.830872,138.086151 211.231888,138.742172 215.633240,139.026871 
	C216.714264,139.096817 217.880264,139.064392 218.894516,138.733566 
	C222.285553,137.627533 223.387955,139.526855 223.930664,142.687134 
z"/>
<path fill="#EFA845" opacity="1.000000" stroke="none" 
	d="
M68.011169,185.014481 
	C61.481903,186.752716 53.566372,183.244980 49.083961,176.344025 
	C49.130470,175.863266 49.276672,175.709641 49.912697,175.467896 
	C51.190079,176.022232 51.977634,176.664703 52.865219,177.614105 
	C54.005283,178.581665 55.045315,179.242294 56.390999,180.070709 
	C60.466766,181.475571 64.236885,182.712631 68.002296,184.215912 
	C68.002129,184.659576 68.006653,184.837036 68.011169,185.014481 
z"/>
<path fill="#F89B19" opacity="1.000000" stroke="none" 
	d="
M232.793152,143.105255 
	C230.445831,145.739334 227.692444,148.369919 223.918900,151.975159 
	C223.918900,148.562347 223.918900,146.232742 223.918884,143.480469 
	C226.741592,143.072433 229.564331,143.087097 232.793152,143.105255 
z"/>
<path fill="#F89B19" opacity="1.000000" stroke="none" 
	d="
M255.138962,185.134369 
	C258.052856,182.991730 261.169464,181.146561 264.553314,179.111298 
	C265.285858,179.364838 266.172455,179.831619 266.149506,180.248337 
	C265.971710,183.477753 258.417664,187.046967 255.138962,185.134369 
z"/>
<path fill="#F59A1D" opacity="1.000000" stroke="none" 
	d="
M176.799927,139.936630 
	C173.744644,140.855682 170.374741,141.396439 167.079849,142.232742 
	C164.647842,142.850021 163.212021,142.433380 163.122437,139.315567 
	C165.543625,138.712830 167.957336,138.207932 170.342819,138.317444 
	C172.417587,138.412720 174.460495,139.202332 176.799927,139.936630 
z"/>
<path fill="#F0AD50" opacity="1.000000" stroke="none" 
	d="
M208.950378,180.287781 
	C209.480118,181.081390 209.816299,182.227417 210.014664,183.660858 
	C206.028214,186.537933 202.130905,185.187973 198.039825,183.800949 
	C200.112915,183.407669 202.447205,183.592590 204.630569,183.103653 
	C206.115417,182.771133 207.388855,181.494614 208.950378,180.287781 
z"/>
<path fill="#F79A1B" opacity="1.000000" stroke="none" 
	d="
M135.011826,185.321091 
	C136.412460,184.296585 137.817017,183.647141 139.534363,182.894516 
	C140.048386,183.590912 140.636719,184.560669 140.374710,185.156540 
	C139.718842,186.648270 138.677551,187.970535 137.790878,189.360779 
	C136.865845,188.139236 135.940796,186.917679 135.011826,185.321091 
z"/>
<path fill="#F89B19" opacity="1.000000" stroke="none" 
	d="
M249.010406,139.777496 
	C247.593887,140.123901 246.216309,140.126923 244.424728,140.123535 
	C244.775116,136.252258 246.941711,134.573029 251.110016,135.476166 
	C250.334869,136.964981 249.692108,138.199539 249.010406,139.777496 
z"/>
<path fill="#F59A1D" opacity="1.000000" stroke="none" 
	d="
M163.435043,129.013916 
	C162.778702,128.245850 162.501450,127.470520 162.096786,126.417603 
	C164.721344,122.754967 166.036423,125.441551 168.467606,127.975441 
	C166.385696,128.436783 165.099915,128.721710 163.435043,129.013916 
z"/>
<path fill="#F19D1C" opacity="1.000000" stroke="none" 
	d="
M143.286591,179.930145 
	C143.256790,177.530319 143.643250,175.156891 144.344345,172.408966 
	C145.455032,172.029266 146.251053,172.024078 147.047089,172.018890 
	C147.049911,174.383789 147.052734,176.748688 147.038116,179.556564 
	C145.914734,179.985214 144.808792,179.970886 143.286591,179.930145 
z"/>
<path fill="#F59A1D" opacity="1.000000" stroke="none" 
	d="
M144.993774,152.003479 
	C144.096710,150.208664 143.199661,148.413849 142.108582,146.340027 
	C143.332901,146.039581 144.751205,146.018127 146.593964,145.997162 
	C147.034760,148.038589 147.051117,150.079529 146.768982,152.499542 
	C145.978256,152.586899 145.486008,152.295197 144.993774,152.003479 
z"/>
<path fill="#F8D399" opacity="1.000000" stroke="none" 
	d="
M68.332672,185.017212 
	C68.006653,184.837036 68.002129,184.659576 68.313416,184.030609 
	C70.747635,183.687164 72.866035,183.795227 74.984444,183.903305 
	C73.551117,184.253922 72.117783,184.604538 70.309357,185.046600 
	C69.507568,185.098663 69.080879,185.059311 68.332672,185.017212 
z"/>
<path fill="#F59A1D" opacity="1.000000" stroke="none" 
	d="
M159.850128,125.628593 
	C157.880249,125.808990 155.751678,125.670494 153.278183,125.349472 
	C155.185989,125.214531 157.438721,125.262115 159.850128,125.628593 
z"/>
<path fill="#F59A1D" opacity="1.000000" stroke="none" 
	d="
M146.681976,137.144470 
	C147.023621,138.714600 147.046036,140.429550 147.051819,142.573303 
	C144.240448,141.400421 144.447113,139.445450 146.681976,137.144470 
z"/>
<path fill="#F89B19" opacity="1.000000" stroke="none" 
	d="
M257.901886,142.745148 
	C256.338257,142.328659 254.686539,141.549911 252.855591,140.476685 
	C254.388840,140.915756 256.101318,141.649323 257.901886,142.745148 
z"/>
<path fill="#F89B19" opacity="1.000000" stroke="none" 
	d="
M265.285980,142.500565 
	C265.256378,141.702713 265.490631,140.997177 265.724915,140.291641 
	C266.213867,140.597672 266.702881,140.903702 267.191864,141.209732 
	C266.644531,141.670776 266.097168,142.131836 265.285980,142.500565 
z"/>
<path fill="#F59A1D" opacity="1.000000" stroke="none" 
	d="
M146.791718,129.131226 
	C147.096649,130.081894 147.090622,131.140533 147.068985,132.596069 
	C146.862518,131.741699 146.671646,130.490448 146.791718,129.131226 
z"/>
<path fill="#F89B19" opacity="1.000000" stroke="none" 
	d="
M235.986084,141.198227 
	C235.744553,141.733932 235.174133,142.314240 234.301743,142.980530 
	C234.552246,142.458603 235.104721,141.850708 235.986084,141.198227 
z"/>
<path fill="#EEB160" opacity="1.000000" stroke="none" 
	d="
M247.483582,151.208191 
	C249.081284,151.827087 250.684418,152.057739 251.414154,152.979706 
	C252.664337,154.559204 253.368286,156.571060 254.301590,158.401382 
	C252.695374,158.988998 251.122284,159.931274 249.475555,160.085052 
	C246.671371,160.346939 243.804993,160.280655 240.996887,160.013855 
	C239.675919,159.888351 237.639893,159.236542 237.350006,158.355377 
	C236.989975,157.260986 237.708832,154.972046 238.653839,154.448608 
	C241.275986,152.996185 244.256912,152.191559 247.483582,151.208191 
M245.574051,158.166428 
	C246.886948,158.056427 248.354782,158.251663 249.443054,157.699188 
	C249.938187,157.447800 250.170929,155.243332 249.682617,154.740356 
	C247.603119,152.598343 242.552155,153.961166 240.383621,157.504654 
	C241.993561,157.745178 243.362000,157.949615 245.574051,158.166428 
z"/>
<path fill="#F89B17" opacity="1.000000" stroke="none" 
	d="
M209.409500,168.000549 
	C209.299225,166.634857 209.188950,165.269165 209.156219,163.496292 
	C210.187607,161.993729 211.332245,161.011246 212.059738,159.781906 
	C214.287796,156.016846 217.885529,154.782166 221.346222,156.509338 
	C222.675537,157.172791 222.366257,161.236572 222.670700,163.766968 
	C222.765411,164.554245 222.423447,165.394058 221.845657,166.532425 
	C218.661819,166.033386 215.913712,165.211746 213.315353,164.434875 
	C212.099472,165.792557 211.055756,166.957977 209.862915,168.085358 
	C209.713776,168.047318 209.409500,168.000549 209.409500,168.000549 
z"/>
<path fill="#FC9B10" opacity="1.000000" stroke="none" 
	d="
M210.012054,168.123413 
	C211.055756,166.957977 212.099472,165.792557 213.315353,164.434875 
	C215.913712,165.211746 218.661819,166.033386 221.802521,166.917847 
	C222.528854,168.377777 222.862579,169.774918 223.261292,171.527557 
	C218.528107,174.133423 214.298431,172.259430 209.769318,170.024261 
	C209.372253,169.806839 209.319244,169.626968 209.462082,169.060669 
	C209.797806,168.504684 209.915833,168.321060 210.012054,168.123413 
z"/>
<path fill="#F29D24" opacity="1.000000" stroke="none" 
	d="
M252.709686,169.446411 
	C251.154388,173.463272 248.033310,174.062027 243.508408,171.297592 
	C245.907059,167.852325 249.289444,169.046555 252.709686,169.446411 
z"/>
<path fill="#FDF6E7" opacity="1.000000" stroke="none" 
	d="
M189.755035,167.018463 
	C189.781540,171.339981 189.771957,175.168488 189.844391,178.995453 
	C189.923065,183.151184 187.085159,183.231964 184.087326,183.326599 
	C180.972916,183.424942 178.339951,183.139175 178.351273,179.050430 
	C178.366455,173.558563 178.334976,168.065643 178.239426,162.574646 
	C178.132767,156.445099 175.319946,153.105438 170.385468,153.094757 
	C165.398697,153.083969 161.419800,156.879028 161.166992,162.362396 
	C160.921951,167.677383 160.864609,173.022736 161.138763,178.333405 
	C161.379150,182.990540 158.763916,183.336517 155.187317,183.385620 
	C151.633270,183.434372 149.607285,182.761063 149.656021,178.495590 
	C149.829071,163.352463 149.782455,148.205124 149.633530,133.061218 
	C149.595535,129.196777 150.911163,127.708466 154.865540,127.849403 
	C158.648621,127.984222 161.415924,128.368362 161.123611,133.227097 
	C160.845917,137.842728 161.063858,142.488190 161.063858,148.245300 
	C163.205673,146.923462 164.512360,146.133881 165.802536,145.318115 
	C176.275543,138.696136 188.740829,144.753662 189.745712,157.043076 
	C190.002457,160.182907 189.765305,163.363129 189.755035,167.018463 
z"/>
<path fill="#F99B13" opacity="1.000000" stroke="none" 
	d="
M144.674683,152.024231 
	C145.486008,152.295197 145.978256,152.586899 146.755646,152.936615 
	C146.791122,157.031601 146.541458,161.068588 146.064270,165.784470 
	C146.241394,167.641434 146.646027,168.819519 147.050629,169.997604 
	C147.055740,170.446655 147.060837,170.895706 147.056519,171.681824 
	C146.251053,172.024078 145.455032,172.029266 144.258667,172.055542 
	C139.045425,169.474686 134.574539,166.218262 128.786026,170.978378 
	C127.737686,171.840469 121.977707,169.202774 120.670685,166.892273 
	C119.368530,164.590378 119.892403,159.839493 121.577271,157.726624 
	C122.849983,156.130585 127.213089,156.829315 130.199783,156.838043 
	C131.796722,156.842697 133.373215,157.672699 134.991211,157.911957 
	C138.361557,158.410324 140.912048,157.364899 141.962280,153.422791 
	C142.218948,152.792526 142.437027,152.551620 142.882172,152.193512 
	C143.504013,152.047134 143.929810,152.046051 144.674683,152.024231 
z"/>
<path fill="#F19D1C" opacity="1.000000" stroke="none" 
	d="
M147.060425,169.634308 
	C146.646027,168.819519 146.241394,167.641434 145.989532,166.157761 
	C146.451584,166.991776 146.760880,168.131393 147.060425,169.634308 
z"/>
<path fill="#FDFAF0" opacity="1.000000" stroke="none" 
	d="
M75.357132,183.864380 
	C72.866035,183.795227 70.747635,183.687164 68.318115,183.764389 
	C64.236885,182.712631 60.466766,181.475571 56.304039,179.751526 
	C54.862682,178.612076 53.813938,177.959610 52.765190,177.307159 
	C51.977634,176.664703 51.190079,176.022232 50.132042,175.237488 
	C49.180988,174.020828 48.500423,172.946426 47.726921,171.275116 
	C47.157070,170.065964 46.680161,169.453766 46.203247,168.841553 
	C45.558361,167.120361 44.913471,165.399170 44.331375,163.155090 
	C44.106220,161.986771 43.818275,161.341339 43.530331,160.695908 
	C43.462227,159.134018 43.394123,157.572113 43.594383,155.454071 
	C43.946140,153.598053 44.029526,152.298157 44.112915,150.998276 
	C44.413429,149.932510 44.713951,148.866730 45.411366,147.343704 
	C46.437252,145.515808 47.066246,144.145157 47.695240,142.774521 
	C50.186844,140.186905 52.678452,137.599304 55.822052,134.857483 
	C58.416485,133.641617 60.358921,132.579971 62.301361,131.518341 
	C62.678478,131.432404 63.055592,131.346451 63.941742,131.372131 
	C65.392761,131.142670 66.334755,130.801590 67.276741,130.460510 
	C69.490303,130.412186 71.703873,130.363876 74.497986,130.609726 
	C76.385841,130.975220 77.693130,131.046570 79.000427,131.117905 
	C80.055428,131.436325 81.110428,131.754730 82.617523,132.457382 
	C83.799126,133.101791 84.528625,133.361969 85.258133,133.622147 
	C85.978035,134.000778 86.697937,134.379410 87.782944,135.201157 
	C88.834297,136.007568 89.520546,136.370880 90.206787,136.734192 
	C91.794762,138.556061 93.382744,140.377914 95.118034,142.826080 
	C96.093040,144.696548 96.920731,145.940704 97.748413,147.184875 
	C98.090263,148.242783 98.432106,149.300674 98.704514,150.856689 
	C98.893776,152.007675 99.152466,152.660568 99.411163,153.313461 
	C99.433678,155.497604 99.456184,157.681747 99.185364,160.507034 
	C98.456795,163.207642 98.021553,165.267090 97.586304,167.326553 
	C94.957138,170.816467 92.327980,174.306381 89.127647,178.012711 
	C88.025177,178.804520 87.493881,179.379944 86.962593,179.955353 
	C85.287308,180.713928 83.612015,181.472504 81.327103,182.293304 
	C80.043549,182.706558 79.369629,183.057556 78.695709,183.408569 
	C77.707077,183.547531 76.718445,183.686478 75.357132,183.864380 
M56.440655,150.178909 
	C56.057846,151.622711 55.532742,153.045563 55.316658,154.513901 
	C54.337444,161.167725 56.592583,166.700272 61.771439,170.821945 
	C66.570564,174.641403 72.123703,175.185608 77.755600,172.908112 
	C84.816872,170.052551 88.574661,162.940125 87.737617,154.620911 
	C87.082138,148.106110 81.743500,141.964294 75.421555,140.451874 
	C67.979904,138.671616 61.298851,141.882645 56.440655,150.178909 
z"/>
<path fill="#F8D399" opacity="1.000000" stroke="none" 
	d="
M61.945538,131.446243 
	C60.358921,132.579971 58.416485,133.641617 56.119659,134.687805 
	C57.706757,133.572968 59.648235,132.473557 61.945538,131.446243 
z"/>
<path fill="#F8D399" opacity="1.000000" stroke="none" 
	d="
M97.845856,167.105225 
	C98.021553,165.267090 98.456795,163.207642 99.129761,160.914017 
	C98.946793,162.747879 98.526100,164.815887 97.845856,167.105225 
z"/>
<path fill="#F8D399" opacity="1.000000" stroke="none" 
	d="
M97.787987,146.842514 
	C96.920731,145.940704 96.093040,144.696548 95.289597,143.110840 
	C96.151749,144.012924 96.989655,145.256531 97.787987,146.842514 
z"/>
<path fill="#F8D399" opacity="1.000000" stroke="none" 
	d="
M47.397663,142.914612 
	C47.066246,144.145157 46.437252,145.515808 45.511395,147.026489 
	C45.843048,145.795914 46.471565,144.425308 47.397663,142.914612 
z"/>
<path fill="#F8D399" opacity="1.000000" stroke="none" 
	d="
M78.715454,130.873505 
	C77.693130,131.046570 76.385841,130.975220 74.913254,130.650650 
	C75.975471,130.474655 77.202972,130.551895 78.715454,130.873505 
z"/>
<path fill="#F8D399" opacity="1.000000" stroke="none" 
	d="
M43.867111,151.281891 
	C44.029526,152.298157 43.946140,153.598053 43.611423,155.062439 
	C43.447166,154.006485 43.534237,152.785995 43.867111,151.281891 
z"/>
<path fill="#F8D399" opacity="1.000000" stroke="none" 
	d="
M66.932449,130.357346 
	C66.334755,130.801590 65.392761,131.142670 64.227051,131.319641 
	C64.864929,130.855072 65.726540,130.554626 66.932449,130.357346 
z"/>
<path fill="#F8D399" opacity="1.000000" stroke="none" 
	d="
M99.515190,153.010345 
	C99.152466,152.660568 98.893776,152.007675 98.786743,151.179672 
	C99.165337,151.572113 99.392281,152.139664 99.515190,153.010345 
z"/>
<path fill="#F8D399" opacity="1.000000" stroke="none" 
	d="
M87.267136,179.930267 
	C87.493881,179.379944 88.025177,178.804520 88.867920,178.224060 
	C88.643463,178.781067 88.107567,179.343124 87.267136,179.930267 
z"/>
<path fill="#F8D399" opacity="1.000000" stroke="none" 
	d="
M90.096260,136.452026 
	C89.520546,136.370880 88.834297,136.007568 88.049171,135.350037 
	C88.628777,135.427155 89.307251,135.798508 90.096260,136.452026 
z"/>
<path fill="#F8D399" opacity="1.000000" stroke="none" 
	d="
M85.115814,133.351776 
	C84.528625,133.361969 83.799126,133.101791 82.929581,132.568207 
	C83.517525,132.557007 84.245514,132.819214 85.115814,133.351776 
z"/>
<path fill="#F8D399" opacity="1.000000" stroke="none" 
	d="
M43.438908,161.005478 
	C43.818275,161.341339 44.106220,161.986771 44.251656,162.817093 
	C43.855259,162.439667 43.601372,161.877365 43.438908,161.005478 
z"/>
<path fill="#F8D399" opacity="1.000000" stroke="none" 
	d="
M78.988159,183.492249 
	C79.369629,183.057556 80.043549,182.706558 81.007324,182.426636 
	C80.625000,182.857132 79.952812,183.216553 78.988159,183.492249 
z"/>
<path fill="#F8D399" opacity="1.000000" stroke="none" 
	d="
M46.187035,169.143280 
	C46.680161,169.453766 47.157070,170.065964 47.588577,170.985596 
	C47.085724,170.677002 46.628273,170.061005 46.187035,169.143280 
z"/>
<path fill="#F99B18" opacity="1.000000" stroke="none" 
	d="
M209.862915,168.085358 
	C209.915833,168.321060 209.797806,168.504684 209.542099,168.791016 
	C209.426254,168.907761 209.243698,168.457367 209.326599,168.228958 
	C209.409500,168.000549 209.713776,168.047318 209.862915,168.085358 
z"/>
<path fill="#FDFDFB" opacity="1.000000" stroke="none" 
	d="
M139.050644,179.040619 
	C136.711517,179.750732 134.265472,180.250946 131.959946,181.122772 
	C119.582047,185.803452 107.529739,174.833603 107.586395,164.571167 
	C107.633636,156.014954 111.140137,150.782150 117.564194,146.605392 
	C124.041328,142.394119 135.379440,144.698029 139.867523,151.589355 
	C138.118179,151.848419 136.530685,152.603119 135.393280,152.171555 
	C124.042572,147.864792 116.147453,152.025421 114.529427,163.611832 
	C114.262306,165.524628 115.183189,167.705643 115.910172,169.628433 
	C116.773232,171.911133 118.020439,174.048584 119.523811,177.109451 
	C124.812424,176.033890 130.345551,174.791870 135.924896,173.813446 
	C139.891785,173.117767 139.809402,175.651840 139.116302,178.750244 
	C139.076263,179.093567 139.008575,179.002228 139.050644,179.040619 
z"/>
<path fill="#F8D399" opacity="1.000000" stroke="none" 
	d="
M52.865223,177.614105 
	C53.813938,177.959610 54.862682,178.612076 55.998386,179.583725 
	C55.045315,179.242294 54.005283,178.581665 52.865223,177.614105 
z"/>
<path fill="#F79A1B" opacity="1.000000" stroke="none" 
	d="
M245.152252,158.160248 
	C243.362000,157.949615 241.993561,157.745178 240.383621,157.504654 
	C242.552155,153.961166 247.603119,152.598343 249.682617,154.740356 
	C250.170929,155.243332 249.938187,157.447800 249.443054,157.699188 
	C248.354782,158.251663 246.886948,158.056427 245.152252,158.160248 
z"/>
<path fill="#EFB05B" opacity="1.000000" stroke="none" 
	d="
M56.571495,149.813812 
	C61.298851,141.882645 67.979904,138.671616 75.421555,140.451874 
	C81.743500,141.964294 87.082138,148.106110 87.737617,154.620911 
	C88.574661,162.940125 84.816872,170.052551 77.755600,172.908112 
	C72.123703,175.185608 66.570564,174.641403 61.771439,170.821945 
	C56.592583,166.700272 54.337444,161.167725 55.316658,154.513901 
	C55.532742,153.045563 56.057846,151.622711 56.571495,149.813812 
M68.113869,170.918289 
	C81.650131,171.706268 87.601662,164.276749 83.770996,151.372879 
	C82.164871,145.962555 76.663155,141.802460 71.757416,142.288879 
	C64.994644,142.959427 58.333412,149.330826 57.772499,155.047943 
	C57.008995,162.830017 60.572582,167.670807 68.113869,170.918289 
z"/>
<path fill="#F99B14" opacity="1.000000" stroke="none" 
	d="
M67.725876,170.810074 
	C60.572582,167.670807 57.008995,162.830017 57.772499,155.047943 
	C58.333412,149.330826 64.994644,142.959427 71.757416,142.288879 
	C76.663155,141.802460 82.164871,145.962555 83.770996,151.372879 
	C87.601662,164.276749 81.650131,171.706268 67.725876,170.810074 
z"/>
</svg>